<?xml version="1.0" encoding="UTF-8"?>
<!DOCTYPE svg PUBLIC "-//W3C//DTD SVG 1.1//EN" "http://www.w3.org/Graphics/SVG/1.1/DTD/svg11.dtd">
<svg xmlns="http://www.w3.org/2000/svg" version="1.1" width="2832px" height="634px" style="shape-rendering:geometricPrecision; text-rendering:geometricPrecision; image-rendering:optimizeQuality; fill-rule:evenodd; clip-rule:evenodd" xmlns:xlink="http://www.w3.org/1999/xlink">
<g><path style="opacity:1" fill="#1f191e" d="M 2345.5,135.5 C 2342.83,130.833 2339.17,127.167 2334.5,124.5C 2309.32,106.042 2281.32,99.8757 2250.5,106C 2241.93,107.801 2233.6,110.301 2225.5,113.5C 2222.97,113.259 2221.3,114.259 2220.5,116.5C 2197.35,129.988 2179.68,148.654 2167.5,172.5C 2165.46,173.911 2164.46,175.911 2164.5,178.5C 2147.84,218.602 2139.51,260.435 2139.5,304C 2139.83,348.092 2144.99,391.592 2155,434.5C 2161.97,461.443 2173.97,485.777 2191,507.5C 2218.92,537.03 2253.09,548.863 2293.5,543C 2302.17,541.055 2310.5,538.221 2318.5,534.5C 2320.03,534.573 2321.03,533.906 2321.5,532.5C 2328.33,528.578 2334.66,523.911 2340.5,518.5C 2341.76,519.016 2342.76,518.35 2343.5,516.5C 2357.4,502.72 2367.23,486.387 2373,467.5C 2374.16,461.205 2375,454.871 2375.5,448.5C 2399.17,448.5 2422.83,448.5 2446.5,448.5C 2446.08,465.188 2442.08,480.854 2434.5,495.5C 2432.41,497.336 2431.08,499.669 2430.5,502.5C 2426.03,511.475 2420.53,519.809 2414,527.5C 2394.24,549.777 2370.74,566.777 2343.5,578.5C 2341.45,578.402 2339.78,579.069 2338.5,580.5C 2325.58,586.747 2311.92,590.913 2297.5,593C 2257.72,596.361 2219.06,591.361 2181.5,578C 2176.16,575.997 2171.16,573.497 2166.5,570.5C 2164.82,568.992 2162.82,567.992 2160.5,567.5C 2145.82,560.486 2132.82,551.152 2121.5,539.5C 2119.1,536.097 2116.1,533.43 2112.5,531.5C 2100.14,518.806 2090.14,504.473 2082.5,488.5C 2082.13,485.733 2080.8,483.733 2078.5,482.5C 2059.79,442.453 2049.12,400.286 2046.5,356C 2043.03,313.873 2045.2,272.04 2053,230.5C 2060.47,191.902 2075.81,156.902 2099,125.5C 2101.39,122.043 2104.22,119.043 2107.5,116.5C 2109.93,115.145 2111.26,113.478 2111.5,111.5C 2112.83,109.5 2114.5,107.833 2116.5,106.5C 2118.75,105.92 2120.42,104.587 2121.5,102.5C 2124.21,98.7881 2127.54,95.7881 2131.5,93.5C 2133.03,93.573 2134.03,92.9063 2134.5,91.5C 2135.44,90.0256 2136.77,89.0256 2138.5,88.5C 2140.03,88.573 2141.03,87.9063 2141.5,86.5C 2170.1,67.2482 2201.76,56.0815 2236.5,53C 2273.85,49.0567 2310.52,52.39 2346.5,63C 2401.3,82.4781 2433.8,120.978 2444,178.5C 2445.27,184.785 2446.1,191.118 2446.5,197.5C 2420.83,197.5 2395.17,197.5 2369.5,197.5C 2367.57,174.368 2359.57,153.701 2345.5,135.5 Z"/></g>
<g><path style="opacity:1" fill="#1f191e" d="M 1566.5,120.5 C 1564.5,120.5 1563.5,121.5 1563.5,123.5C 1560.17,125.833 1556.83,128.167 1553.5,130.5C 1551.5,130.5 1550.5,131.5 1550.5,133.5C 1543.11,139.552 1535.45,145.219 1527.5,150.5C 1525.98,150.511 1524.82,151.177 1524,152.5C 1523.62,151.944 1523.12,151.611 1522.5,151.5C 1518.85,146.204 1515.18,140.871 1511.5,135.5C 1510.83,132.833 1509.17,131.167 1506.5,130.5C 1506.5,130.167 1506.5,129.833 1506.5,129.5C 1504.43,126.427 1501.76,124.094 1498.5,122.5C 1491.48,116.993 1484.14,111.993 1476.5,107.5C 1475.22,106.069 1473.55,105.402 1471.5,105.5C 1436.77,90.7747 1404.1,94.2747 1373.5,116C 1369.72,119.525 1366.05,123.025 1362.5,126.5C 1360.5,126.5 1359.5,127.5 1359.5,129.5C 1337.28,159 1336.95,188.666 1358.5,218.5C 1359.08,220.749 1360.41,222.415 1362.5,223.5C 1375.76,234.805 1390.1,244.639 1405.5,253C 1437.43,267.963 1468.76,283.963 1499.5,301C 1569.4,344.012 1592.9,405.178 1570,484.5C 1567.96,490.149 1565.46,495.482 1562.5,500.5C 1560.99,502.181 1559.99,504.181 1559.5,506.5C 1543.61,537.727 1519.61,560.393 1487.5,574.5C 1485.45,574.402 1483.78,575.069 1482.5,576.5C 1464.03,584.116 1444.69,588.616 1424.5,590C 1407.17,590.667 1389.83,590.667 1372.5,590C 1339.41,588.641 1310.08,577.641 1284.5,557C 1277.05,551.287 1270.05,545.12 1263.5,538.5C 1262.42,536.413 1260.75,535.08 1258.5,534.5C 1257.5,534.167 1256.83,533.5 1256.5,532.5C 1255.42,530.413 1253.75,529.08 1251.5,528.5C 1249.35,527.252 1247.35,525.752 1245.5,524C 1262.67,509.5 1279.83,495 1297,480.5C 1303.89,492.214 1311.72,503.214 1320.5,513.5C 1322.5,517.5 1325.5,520.5 1329.5,522.5C 1349.22,538.405 1371.89,545.739 1397.5,544.5C 1424.69,544.884 1448.69,536.55 1469.5,519.5C 1471.54,518.969 1473.21,517.802 1474.5,516C 1474.27,515.601 1473.94,515.435 1473.5,515.5C 1494.78,490.374 1501.28,461.708 1493,429.5C 1491.48,425.135 1489.98,420.802 1488.5,416.5C 1488.45,414.368 1487.45,413.035 1485.5,412.5C 1483.42,408.664 1481.08,404.997 1478.5,401.5C 1478.17,399.167 1476.83,397.833 1474.5,397.5C 1472.83,395.5 1471.17,393.5 1469.5,391.5C 1468.42,389.413 1466.75,388.08 1464.5,387.5C 1442.44,373.804 1419.78,361.137 1396.5,349.5C 1393.91,347.375 1390.91,346.042 1387.5,345.5C 1361.4,334.342 1337.4,320.009 1315.5,302.5C 1314.42,300.413 1312.75,299.08 1310.5,298.5C 1309.17,297.833 1308.17,296.833 1307.5,295.5C 1304.11,291.102 1300.11,287.436 1295.5,284.5C 1267.11,251.974 1256.95,214.307 1265,171.5C 1269.09,147.659 1279.25,126.993 1295.5,109.5C 1298.83,106.833 1301.83,103.833 1304.5,100.5C 1305.5,98.8333 1306.83,97.5 1308.5,96.5C 1310.03,96.573 1311.03,95.9063 1311.5,94.5C 1315.45,90.1879 1320.12,86.8545 1325.5,84.5C 1327.03,84.573 1328.03,83.9063 1328.5,82.5C 1330.18,80.9925 1332.18,79.9925 1334.5,79.5C 1336.03,79.573 1337.03,78.9063 1337.5,77.5C 1408.49,43.885 1477.83,47.0517 1545.5,87C 1556.56,94.0636 1566.4,102.564 1575,112.5C 1575.51,113.996 1575.01,115.163 1573.5,116C 1571.28,117.723 1568.95,119.223 1566.5,120.5 Z"/></g>
<g><path style="opacity:1" fill="#1f191e" d="M 478.5,69.5 C 475.917,70.985 474.584,73.3183 474.5,76.5C 419.909,239.106 365.409,401.773 311,564.5C 309.762,569.862 308.595,575.195 307.5,580.5C 280.986,582.828 254.319,583.161 227.5,581.5C 173.879,416.801 119.712,252.134 65,87.5C 61.4028,79.5414 57.9028,71.5414 54.5,63.5C 86.8265,62.5001 119.16,62.1668 151.5,62.5C 151.215,68.6543 152.049,74.6543 154,80.5C 199.667,218.167 245.333,355.833 291,493.5C 337.864,356.574 384.531,219.574 431,82.5C 432.864,75.9491 434.031,69.2825 434.5,62.5C 450.181,62.1673 465.848,62.5006 481.5,63.5C 480.487,65.5266 479.487,67.5266 478.5,69.5 Z"/></g>
<g><path style="opacity:1" fill="#1f191e" d="M 785.5,62.5 C 785.829,76.6766 785.496,90.6766 784.5,104.5C 779.805,103.497 775.138,102.497 770.5,101.5C 716.669,100.501 662.669,100.168 608.5,100.5C 608.5,166.833 608.5,233.167 608.5,299.5C 662.669,299.832 716.669,299.499 770.5,298.5C 775.267,297.868 779.933,296.868 784.5,295.5C 785.482,309.421 785.815,323.421 785.5,337.5C 784.5,337.5 783.5,337.5 782.5,337.5C 779.098,337.658 775.764,337.324 772.5,336.5C 718.003,335.501 663.336,335.168 608.5,335.5C 608.5,404.167 608.5,472.833 608.5,541.5C 661.003,541.832 713.336,541.499 765.5,540.5C 771.806,539.394 778.139,538.394 784.5,537.5C 785.496,552.324 785.829,567.324 785.5,582.5C 696.998,582.833 608.665,582.499 520.5,581.5C 520.781,577.812 521.281,574.145 522,570.5C 522.667,405.167 522.667,239.833 522,74.5C 521.594,70.7279 520.761,67.0613 519.5,63.5C 608.164,62.5 696.831,62.1667 785.5,62.5 Z"/></g>
<g><path style="opacity:1" fill="#1f1919" d="M 785.5,62.5 C 786.826,76.6722 786.826,91.0055 785.5,105.5C 784.893,105.376 784.56,105.043 784.5,104.5C 785.496,90.6766 785.829,76.6766 785.5,62.5 Z"/></g>
<g><path style="opacity:1" fill="#1f191e" d="M 1182.5,258.5 C 1180.66,260.849 1179.33,263.515 1178.5,266.5C 1164.07,292.759 1143.07,311.926 1115.5,324C 1105.04,328.116 1094.37,331.616 1083.5,334.5C 1137.43,416.691 1191.09,499.024 1244.5,581.5C 1213.67,582.498 1182.67,582.831 1151.5,582.5C 1099.78,504.069 1048.28,425.403 997,346.5C 987.027,344.113 976.861,342.78 966.5,342.5C 966.333,415.834 966.5,489.167 967,562.5C 967.439,568.898 968.273,575.231 969.5,581.5C 938.833,582.833 908.167,582.833 877.5,581.5C 878.929,573.578 879.762,565.578 880,557.5C 880.667,400.833 880.667,244.167 880,87.5C 879.808,78.6858 878.642,70.0191 876.5,61.5C 928.834,61.3333 981.168,61.5 1033.5,62C 1076.28,61.7054 1114.62,74.3721 1148.5,100C 1183.71,131.619 1198.88,171.119 1194,218.5C 1192.63,232.672 1188.79,246.005 1182.5,258.5 Z M 1004.5,100.5 C 1026.09,100.396 1046.09,105.896 1064.5,117C 1069.43,120.949 1074.09,125.116 1078.5,129.5C 1079.83,131.5 1081.5,133.167 1083.5,134.5C 1086.5,139.167 1089.5,143.833 1092.5,148.5C 1093.93,151.696 1095.6,154.696 1097.5,157.5C 1106.42,181.117 1108.92,205.45 1105,230.5C 1101.01,253.495 1090.51,272.828 1073.5,288.5C 1071.97,288.427 1070.97,289.094 1070.5,290.5C 1053.99,303.006 1035.32,310.006 1014.5,311.5C 998.5,311.5 982.5,311.5 966.5,311.5C 966.5,241.167 966.5,170.833 966.5,100.5C 979.167,100.5 991.833,100.5 1004.5,100.5 Z"/></g>
<g><path style="opacity:1" fill="#1f191e" d="M 2041.5,581.5 C 2008.67,582.498 1975.67,582.832 1942.5,582.5C 1942.77,580.901 1942.43,579.568 1941.5,578.5C 1940.65,573.117 1939.49,567.784 1938,562.5C 1921.53,515.577 1905.36,468.577 1889.5,421.5C 1825.51,419.504 1761.18,418.837 1696.5,419.5C 1696.5,420.5 1696.5,421.5 1696.5,422.5C 1679.5,471.848 1662.5,521.182 1645.5,570.5C 1644.52,574.298 1644.18,578.298 1644.5,582.5C 1628.42,582.817 1612.42,582.484 1596.5,581.5C 1600.79,574.588 1604.29,567.255 1607,559.5C 1664.07,396.962 1720.73,234.295 1777,71.5C 1777.5,68.5184 1777.66,65.5184 1777.5,62.5C 1802.83,62.5 1828.17,62.5 1853.5,62.5C 1854.23,70.4176 1856.06,78.0843 1859,85.5C 1916,243.833 1973,402.167 2030,560.5C 2033.34,567.848 2037.17,574.848 2041.5,581.5 Z M 1790.5,149.5 C 1791.5,149.47 1792.16,149.97 1792.5,151C 1819.81,227.755 1846.81,304.589 1873.5,381.5C 1819.5,381.5 1765.5,381.5 1711.5,381.5C 1737.83,304.167 1764.17,226.833 1790.5,149.5 Z"/></g>
<g><path style="opacity:1" fill="#1f191e" d="M 2774.5,62.5 C 2774.83,76.6766 2774.5,90.6766 2773.5,104.5C 2769.21,103.512 2764.88,102.679 2760.5,102C 2706.17,101.5 2651.83,101.333 2597.5,101.5C 2597.5,167.167 2597.5,232.833 2597.5,298.5C 2652.17,298.667 2706.83,298.5 2761.5,298C 2765.93,297.582 2770.27,296.749 2774.5,295.5C 2774.5,309.5 2774.5,323.5 2774.5,337.5C 2773.17,337.5 2771.83,337.5 2770.5,337.5C 2712.85,336.528 2655.18,336.195 2597.5,336.5C 2597.5,404.5 2597.5,472.5 2597.5,540.5C 2650.5,540.667 2703.5,540.5 2756.5,540C 2762.18,539.165 2767.84,538.331 2773.5,537.5C 2774.5,552.324 2774.83,567.324 2774.5,582.5C 2686.17,582.5 2597.83,582.5 2509.5,582.5C 2509.5,581.5 2509.5,580.5 2509.5,579.5C 2509.86,575.491 2510.36,571.491 2511,567.5C 2511.67,404.167 2511.67,240.833 2511,77.5C 2510.69,72.4309 2509.52,67.5975 2507.5,63C 2596.5,62.5 2685.5,62.3333 2774.5,62.5 Z"/></g>
<g><path style="opacity:1" fill="#1f1919" d="M 2774.5,62.5 C 2775.83,76.6722 2775.83,91.0055 2774.5,105.5C 2773.89,105.376 2773.56,105.043 2773.5,104.5C 2774.5,90.6766 2774.83,76.6766 2774.5,62.5 Z"/></g>
<g><path style="opacity:1" fill="#211919" d="M 478.5,69.5 C 477.404,72.0316 476.071,74.3649 474.5,76.5C 474.584,73.3183 475.917,70.985 478.5,69.5 Z"/></g>
<g><path style="opacity:1" fill="#201e1e" d="M 1337.5,77.5 C 1337.03,78.9063 1336.03,79.573 1334.5,79.5C 1334.97,78.0937 1335.97,77.427 1337.5,77.5 Z"/></g>
<g><path style="opacity:1" fill="#201d1c" d="M 1328.5,82.5 C 1328.03,83.9063 1327.03,84.573 1325.5,84.5C 1325.97,83.0937 1326.97,82.427 1328.5,82.5 Z"/></g>
<g><path style="opacity:1" fill="#201d1c" d="M 2141.5,86.5 C 2141.03,87.9063 2140.03,88.573 2138.5,88.5C 2138.97,87.0937 2139.97,86.427 2141.5,86.5 Z"/></g>
<g><path style="opacity:1" fill="#201d1c" d="M 2134.5,91.5 C 2134.03,92.9063 2133.03,93.573 2131.5,93.5C 2131.97,92.0937 2132.97,91.427 2134.5,91.5 Z"/></g>
<g><path style="opacity:1" fill="#201d1c" d="M 1311.5,94.5 C 1311.03,95.9063 1310.03,96.573 1308.5,96.5C 1308.97,95.0937 1309.97,94.427 1311.5,94.5 Z"/></g>
<g><path style="opacity:1" fill="#1f1919" d="M 1004.5,100.5 C 991.833,100.5 979.167,100.5 966.5,100.5C 966.5,170.833 966.5,241.167 966.5,311.5C 982.5,311.5 998.5,311.5 1014.5,311.5C 998.342,312.496 982.009,312.83 965.5,312.5C 965.5,241.5 965.5,170.5 965.5,99.5C 978.677,99.1712 991.677,99.5045 1004.5,100.5 Z"/></g>
<g><path style="opacity:1" fill="#1f1a1a" d="M 770.5,101.5 C 716.833,101.5 663.167,101.5 609.5,101.5C 609.5,167.167 609.5,232.833 609.5,298.5C 663.167,298.5 716.833,298.5 770.5,298.5C 716.669,299.499 662.669,299.832 608.5,299.5C 608.5,233.167 608.5,166.833 608.5,100.5C 662.669,100.168 716.669,100.501 770.5,101.5 Z"/></g>
<g><path style="opacity:1" fill="#231d1d" d="M 1304.5,100.5 C 1301.83,103.833 1298.83,106.833 1295.5,109.5C 1297.5,105.5 1300.5,102.5 1304.5,100.5 Z"/></g>
<g><path style="opacity:1" fill="#221d1c" d="M 2121.5,102.5 C 2120.42,104.587 2118.75,105.92 2116.5,106.5C 2117.58,104.413 2119.25,103.08 2121.5,102.5 Z"/></g>
<g><path style="opacity:1" fill="#221919" d="M 1471.5,105.5 C 1473.55,105.402 1475.22,106.069 1476.5,107.5C 1474.45,107.598 1472.78,106.931 1471.5,105.5 Z"/></g>
<g><path style="opacity:1" fill="#231d1d" d="M 2111.5,111.5 C 2111.26,113.478 2109.93,115.145 2107.5,116.5C 2108.08,114.251 2109.41,112.585 2111.5,111.5 Z"/></g>
<g><path style="opacity:1" fill="#221919" d="M 2225.5,113.5 C 2224.04,114.737 2222.37,115.737 2220.5,116.5C 2221.3,114.259 2222.97,113.259 2225.5,113.5 Z"/></g>
<g><path style="opacity:1" fill="#231919" d="M 1566.5,120.5 C 1565.83,121.833 1564.83,122.833 1563.5,123.5C 1563.5,121.5 1564.5,120.5 1566.5,120.5 Z"/></g>
<g><path style="opacity:1" fill="#231919" d="M 1498.5,122.5 C 1501.76,124.094 1504.43,126.427 1506.5,129.5C 1503.24,127.906 1500.57,125.573 1498.5,122.5 Z"/></g>
<g><path style="opacity:1" fill="#221919" d="M 2334.5,124.5 C 2339.17,127.167 2342.83,130.833 2345.5,135.5C 2341.5,132.167 2337.83,128.5 2334.5,124.5 Z"/></g>
<g><path style="opacity:1" fill="#231919" d="M 1362.5,126.5 C 1361.83,127.833 1360.83,128.833 1359.5,129.5C 1359.5,127.5 1360.5,126.5 1362.5,126.5 Z"/></g>
<g><path style="opacity:1" fill="#211919" d="M 1078.5,129.5 C 1081.17,130.167 1082.83,131.833 1083.5,134.5C 1081.5,133.167 1079.83,131.5 1078.5,129.5 Z"/></g>
<g><path style="opacity:1" fill="#201919" d="M 1506.5,130.5 C 1509.17,131.167 1510.83,132.833 1511.5,135.5C 1509.5,134.167 1507.83,132.5 1506.5,130.5 Z"/></g>
<g><path style="opacity:1" fill="#231919" d="M 1553.5,130.5 C 1552.83,131.833 1551.83,132.833 1550.5,133.5C 1550.5,131.5 1551.5,130.5 1553.5,130.5 Z"/></g>
<g><path style="opacity:1" fill="#221919" d="M 1092.5,148.5 C 1095.42,150.662 1097.09,153.662 1097.5,157.5C 1095.6,154.696 1093.93,151.696 1092.5,148.5 Z"/></g>
<g><path style="opacity:1" fill="#221919" d="M 1527.5,150.5 C 1526,153.697 1524.33,154.03 1522.5,151.5C 1523.12,151.611 1523.62,151.944 1524,152.5C 1524.82,151.177 1525.98,150.511 1527.5,150.5 Z"/></g>
<g><path style="opacity:1" fill="#221919" d="M 2167.5,172.5 C 2167.01,174.819 2166.01,176.819 2164.5,178.5C 2164.46,175.911 2165.46,173.911 2167.5,172.5 Z"/></g>
<g><path style="opacity:1" fill="#231c1c" d="M 1358.5,218.5 C 1360.59,219.585 1361.92,221.251 1362.5,223.5C 1360.41,222.415 1359.08,220.749 1358.5,218.5 Z"/></g>
<g><path style="opacity:1" fill="#211919" d="M 1182.5,258.5 C 1182.21,261.754 1180.87,264.421 1178.5,266.5C 1179.33,263.515 1180.66,260.849 1182.5,258.5 Z"/></g>
<g><path style="opacity:1" fill="#241919" d="M 1295.5,284.5 C 1300.11,287.436 1304.11,291.102 1307.5,295.5C 1302.89,292.564 1298.89,288.898 1295.5,284.5 Z"/></g>
<g><path style="opacity:1" fill="#201d1c" d="M 1073.5,288.5 C 1073.03,289.906 1072.03,290.573 1070.5,290.5C 1070.97,289.094 1071.97,288.427 1073.5,288.5 Z"/></g>
<g><path style="opacity:1" fill="#1f1919" d="M 784.5,295.5 C 786.483,309.461 787.15,323.794 786.5,338.5C 784.901,338.768 783.568,338.434 782.5,337.5C 783.5,337.5 784.5,337.5 785.5,337.5C 785.815,323.421 785.482,309.421 784.5,295.5 Z"/></g>
<g><path style="opacity:1" fill="#1f1919" d="M 2774.5,295.5 C 2775.5,309.657 2775.83,323.99 2775.5,338.5C 2773.59,338.784 2771.92,338.451 2770.5,337.5C 2771.83,337.5 2773.17,337.5 2774.5,337.5C 2774.5,323.5 2774.5,309.5 2774.5,295.5 Z"/></g>
<g><path style="opacity:1" fill="#211919" d="M 1310.5,298.5 C 1312.75,299.08 1314.42,300.413 1315.5,302.5C 1313.25,301.92 1311.58,300.587 1310.5,298.5 Z"/></g>
<g><path style="opacity:1" fill="#1f1a1a" d="M 772.5,336.5 C 718.167,336.5 663.833,336.5 609.5,336.5C 609.5,404.5 609.5,472.5 609.5,540.5C 661.5,540.5 713.5,540.5 765.5,540.5C 713.336,541.499 661.003,541.832 608.5,541.5C 608.5,472.833 608.5,404.167 608.5,335.5C 663.336,335.168 718.003,335.501 772.5,336.5 Z"/></g>
<g><path style="opacity:1" fill="#211919" d="M 1387.5,345.5 C 1390.91,346.042 1393.91,347.375 1396.5,349.5C 1393.09,348.958 1390.09,347.625 1387.5,345.5 Z"/></g>
<g><path style="opacity:1" fill="#211919" d="M 1464.5,387.5 C 1466.75,388.08 1468.42,389.413 1469.5,391.5C 1467.25,390.92 1465.58,389.587 1464.5,387.5 Z"/></g>
<g><path style="opacity:1" fill="#231919" d="M 1474.5,397.5 C 1476.83,397.833 1478.17,399.167 1478.5,401.5C 1476.83,400.5 1475.5,399.167 1474.5,397.5 Z"/></g>
<g><path style="opacity:1" fill="#221919" d="M 1485.5,412.5 C 1487.45,413.035 1488.45,414.368 1488.5,416.5C 1487.03,415.564 1486.03,414.23 1485.5,412.5 Z"/></g>
<g><path style="opacity:1" fill="#1f1918" d="M 1889.5,421.5 C 1857.4,420.837 1825.24,420.504 1793,420.5C 1760.62,420.507 1728.45,421.174 1696.5,422.5C 1696.5,421.5 1696.5,420.5 1696.5,419.5C 1761.18,418.837 1825.51,419.504 1889.5,421.5 Z"/></g>
<g><path style="opacity:1" fill="#221919" d="M 2078.5,482.5 C 2080.8,483.733 2082.13,485.733 2082.5,488.5C 2080.68,486.882 2079.35,484.882 2078.5,482.5 Z"/></g>
<g><path style="opacity:1" fill="#211919" d="M 2434.5,495.5 C 2433.92,498.331 2432.59,500.664 2430.5,502.5C 2431.08,499.669 2432.41,497.336 2434.5,495.5 Z"/></g>
<g><path style="opacity:1" fill="#211919" d="M 1562.5,500.5 C 1562.54,503.089 1561.54,505.089 1559.5,506.5C 1559.99,504.181 1560.99,502.181 1562.5,500.5 Z"/></g>
<g><path style="opacity:1" fill="#241c1b" d="M 1320.5,513.5 C 1323.83,516.167 1326.83,519.167 1329.5,522.5C 1325.5,520.5 1322.5,517.5 1320.5,513.5 Z"/></g>
<g><path style="opacity:1" fill="#221d1c" d="M 1473.5,515.5 C 1473.94,515.435 1474.27,515.601 1474.5,516C 1473.21,517.802 1471.54,518.969 1469.5,519.5C 1470.5,517.833 1471.83,516.5 1473.5,515.5 Z"/></g>
<g><path style="opacity:1" fill="#221d1d" d="M 2343.5,516.5 C 2342.76,518.35 2341.76,519.016 2340.5,518.5C 2340.97,517.094 2341.97,516.427 2343.5,516.5 Z"/></g>
<g><path style="opacity:1" fill="#211919" d="M 1251.5,528.5 C 1253.75,529.08 1255.42,530.413 1256.5,532.5C 1254.25,531.92 1252.58,530.587 1251.5,528.5 Z"/></g>
<g><path style="opacity:1" fill="#241919" d="M 2112.5,531.5 C 2116.1,533.43 2119.1,536.097 2121.5,539.5C 2117.9,537.57 2114.9,534.903 2112.5,531.5 Z"/></g>
<g><path style="opacity:1" fill="#201e1e" d="M 2321.5,532.5 C 2321.03,533.906 2320.03,534.573 2318.5,534.5C 2318.97,533.094 2319.97,532.427 2321.5,532.5 Z"/></g>
<g><path style="opacity:1" fill="#211919" d="M 1258.5,534.5 C 1260.75,535.08 1262.42,536.413 1263.5,538.5C 1261.25,537.92 1259.58,536.587 1258.5,534.5 Z"/></g>
<g><path style="opacity:1" fill="#211919" d="M 2160.5,567.5 C 2162.82,567.992 2164.82,568.992 2166.5,570.5C 2163.91,570.539 2161.91,569.539 2160.5,567.5 Z"/></g>
<g><path style="opacity:1" fill="#221919" d="M 1487.5,574.5 C 1486.22,575.931 1484.55,576.598 1482.5,576.5C 1483.78,575.069 1485.45,574.402 1487.5,574.5 Z"/></g>
<g><path style="opacity:1" fill="#1f1918" d="M 1941.5,578.5 C 1942.43,579.568 1942.77,580.901 1942.5,582.5C 1975.67,582.832 2008.67,582.498 2041.5,581.5C 2042.04,581.56 2042.38,581.893 2042.5,582.5C 2008.84,583.5 1975.17,583.833 1941.5,583.5C 1941.5,581.833 1941.5,580.167 1941.5,578.5 Z"/></g>
<g><path style="opacity:1" fill="#221919" d="M 2343.5,578.5 C 2342.22,579.931 2340.55,580.598 2338.5,580.5C 2339.78,579.069 2341.45,578.402 2343.5,578.5 Z"/></g>
<g><path style="opacity:1" fill="#1f1919" d="M 2773.5,537.5 C 2773.56,536.957 2773.89,536.624 2774.5,536.5C 2775.5,552.152 2775.83,567.819 2775.5,583.5C 2686.5,583.5 2597.5,583.5 2508.5,583.5C 2508.23,581.901 2508.57,580.568 2509.5,579.5C 2509.5,580.5 2509.5,581.5 2509.5,582.5C 2597.83,582.5 2686.17,582.5 2774.5,582.5C 2774.83,567.324 2774.5,552.324 2773.5,537.5 Z"/></g>
<g><path style="opacity:1" fill="#1e1918" d="M 307.5,580.5 C 307.5,581.5 307.5,582.5 307.5,583.5C 280.479,584.158 253.812,583.491 227.5,581.5C 254.319,583.161 280.986,582.828 307.5,580.5 Z"/></g>
<g><path style="opacity:1" fill="#1f1919" d="M 784.5,537.5 C 784.56,536.957 784.893,536.624 785.5,536.5C 786.499,552.152 786.833,567.819 786.5,583.5C 697.498,583.833 608.498,583.5 519.5,582.5C 519.624,581.893 519.957,581.56 520.5,581.5C 608.665,582.499 696.998,582.833 785.5,582.5C 785.829,567.324 785.496,552.324 784.5,537.5 Z"/></g>
<g><path style="opacity:1" fill="#1f1919" d="M 877.5,581.5 C 908.167,582.833 938.833,582.833 969.5,581.5C 970.043,581.56 970.376,581.893 970.5,582.5C 939.167,583.833 907.833,583.833 876.5,582.5C 876.624,581.893 876.957,581.56 877.5,581.5 Z"/></g>
<g><path style="opacity:1" fill="#1f1918" d="M 1244.5,581.5 C 1245.04,581.56 1245.38,581.893 1245.5,582.5C 1214,583.83 1182.67,583.83 1151.5,582.5C 1182.67,582.831 1213.67,582.498 1244.5,581.5 Z"/></g>
<g><path style="opacity:1" fill="#1f1919" d="M 1645.5,570.5 C 1645.5,574.833 1645.5,579.167 1645.5,583.5C 1628.8,584.152 1612.47,583.485 1596.5,581.5C 1612.42,582.484 1628.42,582.817 1644.5,582.5C 1644.18,578.298 1644.52,574.298 1645.5,570.5 Z"/></g>
</svg>
